<svg width="207" height="48" viewBox="0 0 207 48" fill="none" xmlns="http://www.w3.org/2000/svg">
<g clip-path="url(#clip0_477_10121)">
<path d="M195 0H12C5.37258 0 0 5.37258 0 12V36C0 42.6274 5.37258 48 12 48H195C201.627 48 207 42.6274 207 36V12C207 5.37258 201.627 0 195 0Z" fill="#25D366"/>
<mask id="mask0_477_10121" style="mask-type:luminance" maskUnits="userSpaceOnUse" x="13" y="12" width="24" height="24">
<path d="M13 12H37V36H13V12Z" fill="white"/>
</mask>
<g mask="url(#mask0_477_10121)">
<path fill-rule="evenodd" clip-rule="evenodd" d="M24.7463 12.9473C27.6487 12.9613 30.4497 14.1009 32.5449 16.1094C34.6905 18.1664 35.9271 20.9246 36.0352 23.895C36.1408 26.7957 35.1281 29.6451 33.2073 31.8212C31.1006 34.2079 28.1702 35.5786 25.0052 35.6695C24.8969 35.6726 24.7886 35.6741 24.6802 35.6741C22.9748 35.6741 21.2853 35.2896 19.755 34.5532L13.8069 35.8762C13.7933 35.8788 13.7792 35.8782 13.7659 35.8743C13.7526 35.8705 13.7404 35.8635 13.7303 35.854C13.7202 35.8444 13.7125 35.8327 13.7079 35.8196C13.7032 35.8065 13.7018 35.7925 13.7036 35.7788L14.7084 29.7644C13.8509 28.1976 13.3723 26.4323 13.3207 24.6366C13.2337 21.6025 14.3334 18.7163 16.4173 16.5093C18.5779 14.2211 21.5284 12.9473 24.69 12.9473H24.7463ZM24.683 14.919C24.5921 14.919 24.5011 14.9203 24.4102 14.9229C19.2337 15.0714 15.1431 19.4036 15.2916 24.5801C15.337 26.1607 15.7823 27.7123 16.5794 29.067L16.7524 29.3606L16.0079 33.4418L20.0466 32.4885L20.3516 32.6472C21.6823 33.3396 23.1734 33.7025 24.6799 33.7025C24.7694 33.7025 24.8591 33.7012 24.9486 33.6986C30.1252 33.5502 34.2158 29.218 34.0673 24.0415C33.9214 18.9564 29.7379 14.919 24.683 14.919ZM20.7545 18.8214C20.9444 18.8273 21.1347 18.8327 21.3007 18.8449C21.5036 18.8595 21.7282 18.8759 21.9272 19.3577C22.1634 19.9298 22.6742 21.3581 22.7411 21.503C22.808 21.6479 22.8504 21.816 22.7495 22.0037C22.6486 22.191 22.5974 22.3086 22.45 22.4707C22.3023 22.633 22.1389 22.8335 22.0069 22.9574C21.8595 23.0953 21.7063 23.2453 21.8639 23.5359C22.0214 23.8266 22.5649 24.7783 23.3894 25.5608C24.449 26.5664 25.2987 26.8982 25.6362 27.0556C25.758 27.1125 25.8592 27.1395 25.9476 27.1395C26.069 27.1395 26.1661 27.0886 26.2588 26.9947C26.4364 26.8147 26.9708 26.1911 27.1958 25.9042C27.3135 25.7541 27.4201 25.7009 27.5358 25.7009C27.6284 25.7009 27.7269 25.735 27.8419 25.7809C28.1003 25.8841 29.4809 26.6175 29.7617 26.769C30.0425 26.9204 30.2303 26.9977 30.298 27.1187C30.3656 27.2403 30.348 27.8114 30.0899 28.4704C29.8318 29.1295 28.648 29.7365 28.1237 29.7679C27.9702 29.7772 27.8192 29.7986 27.6227 29.7986C27.1476 29.7986 26.4068 29.6735 24.7241 28.9488C21.861 27.7159 20.1224 24.6863 19.9856 24.4917C19.8491 24.2968 18.8689 22.9086 18.912 21.5044C18.9551 20.1004 19.713 19.4326 19.9832 19.1551C20.2422 18.889 20.539 18.8211 20.7306 18.8211L20.7545 18.8214Z" fill="white"/>
</g>
<path d="M53.0728 18.0909V29H51.0806L46.3345 22.1339H46.2546V29H43.9482V18.0909H45.9723L50.6811 24.9517H50.777V18.0909H53.0728ZM57.2689 29.1545C56.7469 29.1545 56.2817 29.0639 55.8733 28.8828C55.4649 28.6982 55.1418 28.4265 54.9039 28.0678C54.6695 27.7056 54.5523 27.2546 54.5523 26.7148C54.5523 26.2603 54.6357 25.8786 54.8026 25.5696C54.9695 25.2607 55.1968 25.0121 55.4845 24.8239C55.7721 24.6357 56.0988 24.4936 56.4646 24.3977C56.8339 24.3018 57.221 24.2344 57.6258 24.1953C58.1017 24.1456 58.4852 24.0994 58.7764 24.0568C59.0676 24.0107 59.2789 23.9432 59.4102 23.8544C59.5416 23.7656 59.6073 23.6342 59.6073 23.4602V23.4283C59.6073 23.0909 59.5008 22.8299 59.2877 22.6452C59.0782 22.4606 58.7799 22.3683 58.3928 22.3683C57.9845 22.3683 57.6595 22.4588 57.4181 22.6399C57.1766 22.8175 57.0168 23.0412 56.9387 23.3111L54.8399 23.1406C54.9465 22.6435 55.156 22.2138 55.4685 21.8516C55.781 21.4858 56.184 21.2053 56.6776 21.0099C57.1748 20.8111 57.7501 20.7116 58.4035 20.7116C58.858 20.7116 59.2931 20.7649 59.7085 20.8714C60.1276 20.978 60.4987 21.1431 60.8218 21.3668C61.1485 21.5906 61.406 21.8782 61.5942 22.2298C61.7824 22.5778 61.8765 22.995 61.8765 23.4815V29H59.7245V27.8654H59.6606C59.5292 28.1211 59.3534 28.3466 59.1333 28.5419C58.9131 28.7337 58.6485 28.8846 58.3396 28.9947C58.0306 29.1012 57.6737 29.1545 57.2689 29.1545ZM57.9188 27.5884C58.2526 27.5884 58.5473 27.5227 58.803 27.3913C59.0587 27.2564 59.2593 27.0753 59.4049 26.848C59.5505 26.6207 59.6233 26.3633 59.6233 26.0756V25.2074C59.5523 25.2536 59.4546 25.2962 59.3303 25.3352C59.2096 25.3707 59.0729 25.4045 58.9202 25.4364C58.7675 25.4648 58.6148 25.4915 58.4621 25.5163C58.3094 25.5376 58.1709 25.5572 58.0466 25.5749C57.7803 25.614 57.5477 25.6761 57.3488 25.7614C57.1499 25.8466 56.9955 25.962 56.8854 26.1076C56.7753 26.2496 56.7203 26.4272 56.7203 26.6403C56.7203 26.9492 56.8321 27.1854 57.0558 27.3487C57.2831 27.5085 57.5708 27.5884 57.9188 27.5884ZM63.637 32.0682V20.8182H65.8742V22.1925H65.9754C66.0748 21.9723 66.2187 21.7486 66.4069 21.5213C66.5986 21.2905 66.8472 21.0987 67.1526 20.946C67.4616 20.7898 67.8451 20.7116 68.3032 20.7116C68.8998 20.7116 69.4502 20.8679 69.9545 21.1804C70.4587 21.4893 70.8618 21.9563 71.1636 22.5813C71.4655 23.2028 71.6164 23.9822 71.6164 24.9197C71.6164 25.8324 71.469 26.603 71.1743 27.2315C70.8831 27.8565 70.4854 28.3306 69.9811 28.6538C69.4804 28.9734 68.9193 29.1332 68.2979 29.1332C67.8575 29.1332 67.4829 29.0604 67.1739 28.9148C66.8685 28.7692 66.6182 28.5863 66.4229 28.3661C66.2275 28.1424 66.0784 27.9169 65.9754 27.6896H65.9062V32.0682H63.637ZM65.8582 24.9091C65.8582 25.3956 65.9257 25.82 66.0606 26.1822C66.1956 26.5444 66.3909 26.8267 66.6466 27.0291C66.9023 27.228 67.213 27.3274 67.5787 27.3274C67.9481 27.3274 68.2606 27.2262 68.5162 27.0238C68.7719 26.8178 68.9655 26.5337 69.0969 26.1715C69.2318 25.8058 69.2993 25.3849 69.2993 24.9091C69.2993 24.4368 69.2336 24.0213 69.1022 23.6626C68.9708 23.304 68.7773 23.0234 68.5216 22.821C68.2659 22.6186 67.9516 22.5174 67.5787 22.5174C67.2094 22.5174 66.8969 22.6151 66.6412 22.8104C66.3891 23.0057 66.1956 23.2827 66.0606 23.6413C65.9257 24 65.8582 24.4226 65.8582 24.9091ZM73.1292 29V20.8182H75.3983V29H73.1292ZM74.2691 19.7635C73.9317 19.7635 73.6423 19.6516 73.4008 19.4279C73.1629 19.2006 73.0439 18.929 73.0439 18.6129C73.0439 18.3004 73.1629 18.0323 73.4008 17.8086C73.6423 17.5813 73.9317 17.4677 74.2691 17.4677C74.6064 17.4677 74.8941 17.5813 75.132 17.8086C75.3735 18.0323 75.4942 18.3004 75.4942 18.6129C75.4942 18.929 75.3735 19.2006 75.132 19.4279C74.8941 19.6516 74.6064 19.7635 74.2691 19.7635ZM84.0236 23.1513L81.9462 23.2791C81.9107 23.1016 81.8343 22.9418 81.7172 22.7997C81.6 22.6541 81.4455 22.5387 81.2537 22.4535C81.0655 22.3647 80.84 22.3203 80.5772 22.3203C80.2257 22.3203 79.9292 22.3949 79.6877 22.544C79.4462 22.6896 79.3255 22.8849 79.3255 23.13C79.3255 23.3253 79.4036 23.4904 79.5598 23.6254C79.7161 23.7603 79.9842 23.8686 80.3642 23.9503L81.845 24.2486C82.6404 24.4119 83.2335 24.6747 83.6241 25.0369C84.0147 25.3991 84.2101 25.875 84.2101 26.4645C84.2101 27.0007 84.052 27.4712 83.736 27.8761C83.4235 28.2809 82.9938 28.5969 82.4469 28.8242C81.9036 29.0479 81.2768 29.1598 80.5666 29.1598C79.4835 29.1598 78.6206 28.9343 77.9778 28.4833C77.3386 28.0288 76.964 27.4109 76.8539 26.6296L79.0858 26.5124C79.1532 26.8427 79.3166 27.0948 79.5758 27.2688C79.835 27.4393 80.1671 27.5245 80.5719 27.5245C80.9696 27.5245 81.2892 27.4482 81.5307 27.2955C81.7757 27.1392 81.9 26.9386 81.9036 26.6935C81.9 26.4876 81.813 26.3189 81.6426 26.1875C81.4721 26.0526 81.2093 25.9496 80.8542 25.8786L79.4373 25.5962C78.6383 25.4364 78.0435 25.1594 77.6529 24.7653C77.2658 24.3711 77.0723 23.8686 77.0723 23.2578C77.0723 22.7322 77.2143 22.2795 77.4984 21.8995C77.786 21.5195 78.1891 21.2266 78.7076 21.0206C79.2296 20.8146 79.8404 20.7116 80.54 20.7116C81.5733 20.7116 82.3865 20.93 82.9796 21.3668C83.5762 21.8036 83.9242 22.3984 84.0236 23.1513ZM85.5963 29V27.647L89.602 22.6879V22.6293H85.7348V20.8182H92.3346V22.2937L88.574 27.1303V27.1889H92.4731V29H85.5963ZM99.9491 24.2699V29H97.68V20.8182H99.8426V22.2617H99.9385C100.12 21.7859 100.423 21.4094 100.849 21.1325C101.275 20.8519 101.792 20.7116 102.399 20.7116C102.968 20.7116 103.463 20.8359 103.886 21.0845C104.308 21.3331 104.637 21.6882 104.871 22.1499C105.105 22.608 105.223 23.1548 105.223 23.7905V29H102.953V24.1953C102.957 23.6946 102.829 23.304 102.57 23.0234C102.311 22.7393 101.954 22.5973 101.499 22.5973C101.194 22.5973 100.924 22.663 100.69 22.7944C100.459 22.9258 100.278 23.1175 100.146 23.3697C100.018 23.6183 99.9527 23.9183 99.9491 24.2699ZM109.344 29.1545C108.822 29.1545 108.357 29.0639 107.949 28.8828C107.54 28.6982 107.217 28.4265 106.979 28.0678C106.745 27.7056 106.627 27.2546 106.627 26.7148C106.627 26.2603 106.711 25.8786 106.878 25.5696C107.045 25.2607 107.272 25.0121 107.56 24.8239C107.847 24.6357 108.174 24.4936 108.54 24.3977C108.909 24.3018 109.296 24.2344 109.701 24.1953C110.177 24.1456 110.56 24.0994 110.852 24.0568C111.143 24.0107 111.354 23.9432 111.485 23.8544C111.617 23.7656 111.683 23.6342 111.683 23.4602V23.4283C111.683 23.0909 111.576 22.8299 111.363 22.6452C111.153 22.4606 110.855 22.3683 110.468 22.3683C110.06 22.3683 109.735 22.4588 109.493 22.6399C109.252 22.8175 109.092 23.0412 109.014 23.3111L106.915 23.1406C107.022 22.6435 107.231 22.2138 107.544 21.8516C107.856 21.4858 108.259 21.2053 108.753 21.0099C109.25 20.8111 109.825 20.7116 110.479 20.7116C110.933 20.7116 111.368 20.7649 111.784 20.8714C112.203 20.978 112.574 21.1431 112.897 21.3668C113.224 21.5906 113.481 21.8782 113.669 22.2298C113.858 22.5778 113.952 22.995 113.952 23.4815V29H111.8V27.8654H111.736C111.604 28.1211 111.429 28.3466 111.208 28.5419C110.988 28.7337 110.724 28.8846 110.415 28.9947C110.106 29.1012 109.749 29.1545 109.344 29.1545ZM109.994 27.5884C110.328 27.5884 110.623 27.5227 110.878 27.3913C111.134 27.2564 111.335 27.0753 111.48 26.848C111.626 26.6207 111.699 26.3633 111.699 26.0756V25.2074C111.627 25.2536 111.53 25.2962 111.406 25.3352C111.285 25.3707 111.148 25.4045 110.995 25.4364C110.843 25.4648 110.69 25.4915 110.537 25.5163C110.385 25.5376 110.246 25.5572 110.122 25.5749C109.855 25.614 109.623 25.6761 109.424 25.7614C109.225 25.8466 109.071 25.962 108.961 26.1076C108.85 26.2496 108.795 26.4272 108.795 26.6403C108.795 26.9492 108.907 27.1854 109.131 27.3487C109.358 27.5085 109.646 27.5884 109.994 27.5884ZM121.682 29L118.561 18.0909H121.08L122.886 25.6708H122.976L124.969 18.0909H127.126L129.113 25.6868H129.209L131.014 18.0909H133.534L130.413 29H128.165L126.087 21.8675H126.002L123.93 29H121.682ZM136.995 24.2699V29H134.726V18.0909H136.931V22.2617H137.027C137.212 21.7788 137.51 21.4006 137.922 21.1271C138.334 20.8501 138.85 20.7116 139.472 20.7116C140.04 20.7116 140.536 20.8359 140.958 21.0845C141.384 21.3295 141.714 21.6829 141.949 22.1445C142.187 22.6026 142.304 23.1513 142.3 23.7905V29H140.031V24.1953C140.035 23.6911 139.907 23.2987 139.648 23.0181C139.392 22.7376 139.033 22.5973 138.572 22.5973C138.263 22.5973 137.989 22.663 137.751 22.7944C137.517 22.9258 137.332 23.1175 137.197 23.3697C137.066 23.6183 136.999 23.9183 136.995 24.2699ZM146.419 29.1545C145.897 29.1545 145.432 29.0639 145.024 28.8828C144.615 28.6982 144.292 28.4265 144.054 28.0678C143.82 27.7056 143.703 27.2546 143.703 26.7148C143.703 26.2603 143.786 25.8786 143.953 25.5696C144.12 25.2607 144.347 25.0121 144.635 24.8239C144.922 24.6357 145.249 24.4936 145.615 24.3977C145.984 24.3018 146.371 24.2344 146.776 24.1953C147.252 24.1456 147.636 24.0994 147.927 24.0568C148.218 24.0107 148.429 23.9432 148.561 23.8544C148.692 23.7656 148.758 23.6342 148.758 23.4602V23.4283C148.758 23.0909 148.651 22.8299 148.438 22.6452C148.229 22.4606 147.93 22.3683 147.543 22.3683C147.135 22.3683 146.81 22.4588 146.568 22.6399C146.327 22.8175 146.167 23.0412 146.089 23.3111L143.99 23.1406C144.097 22.6435 144.306 22.2138 144.619 21.8516C144.931 21.4858 145.334 21.2053 145.828 21.0099C146.325 20.8111 146.9 20.7116 147.554 20.7116C148.008 20.7116 148.443 20.7649 148.859 20.8714C149.278 20.978 149.649 21.1431 149.972 21.3668C150.299 21.5906 150.556 21.8782 150.745 22.2298C150.933 22.5778 151.027 22.995 151.027 23.4815V29H148.875V27.8654H148.811C148.68 28.1211 148.504 28.3466 148.284 28.5419C148.063 28.7337 147.799 28.8846 147.49 28.9947C147.181 29.1012 146.824 29.1545 146.419 29.1545ZM147.069 27.5884C147.403 27.5884 147.698 27.5227 147.953 27.3913C148.209 27.2564 148.41 27.0753 148.555 26.848C148.701 26.6207 148.774 26.3633 148.774 26.0756V25.2074C148.703 25.2536 148.605 25.2962 148.481 25.3352C148.36 25.3707 148.223 25.4045 148.071 25.4364C147.918 25.4648 147.765 25.4915 147.612 25.5163C147.46 25.5376 147.321 25.5572 147.197 25.5749C146.931 25.614 146.698 25.6761 146.499 25.7614C146.3 25.8466 146.146 25.962 146.036 26.1076C145.926 26.2496 145.871 26.4272 145.871 26.6403C145.871 26.9492 145.983 27.1854 146.206 27.3487C146.434 27.5085 146.721 27.5884 147.069 27.5884ZM157.139 20.8182V22.5227H152.212V20.8182H157.139ZM153.331 18.858H155.6V26.4858C155.6 26.6953 155.632 26.8587 155.696 26.9759C155.76 27.0895 155.848 27.1694 155.962 27.2156C156.079 27.2617 156.214 27.2848 156.367 27.2848C156.473 27.2848 156.58 27.2759 156.687 27.2582C156.793 27.2369 156.875 27.2209 156.932 27.2102L157.288 28.8988C157.175 28.9343 157.015 28.9751 156.809 29.0213C156.603 29.071 156.353 29.1012 156.058 29.1119C155.511 29.1332 155.032 29.0604 154.62 28.8935C154.211 28.7266 153.894 28.4673 153.666 28.1158C153.439 27.7642 153.327 27.3203 153.331 26.7841V18.858ZM165.322 23.1513L163.245 23.2791C163.21 23.1016 163.133 22.9418 163.016 22.7997C162.899 22.6541 162.744 22.5387 162.553 22.4535C162.364 22.3647 162.139 22.3203 161.876 22.3203C161.525 22.3203 161.228 22.3949 160.987 22.544C160.745 22.6896 160.624 22.8849 160.624 23.13C160.624 23.3253 160.702 23.4904 160.859 23.6254C161.015 23.7603 161.283 23.8686 161.663 23.9503L163.144 24.2486C163.939 24.4119 164.532 24.6747 164.923 25.0369C165.314 25.3991 165.509 25.875 165.509 26.4645C165.509 27.0007 165.351 27.4712 165.035 27.8761C164.722 28.2809 164.293 28.5969 163.746 28.8242C163.202 29.0479 162.576 29.1598 161.865 29.1598C160.782 29.1598 159.919 28.9343 159.277 28.4833C158.637 28.0288 158.263 27.4109 158.153 26.6296L160.385 26.5124C160.452 26.8427 160.615 27.0948 160.875 27.2688C161.134 27.4393 161.466 27.5245 161.871 27.5245C162.268 27.5245 162.588 27.4482 162.83 27.2955C163.075 27.1392 163.199 26.9386 163.202 26.6935C163.199 26.4876 163.112 26.3189 162.941 26.1875C162.771 26.0526 162.508 25.9496 162.153 25.8786L160.736 25.5962C159.937 25.4364 159.342 25.1594 158.952 24.7653C158.565 24.3711 158.371 23.8686 158.371 23.2578C158.371 22.7322 158.513 22.2795 158.797 21.8995C159.085 21.5195 159.488 21.2266 160.006 21.0206C160.528 20.8146 161.139 20.7116 161.839 20.7116C162.872 20.7116 163.685 20.93 164.278 21.3668C164.875 21.8036 165.223 22.3984 165.322 23.1513ZM168.861 29H166.389L170.155 18.0909H173.127L176.888 29H174.416L171.684 20.5838H171.599L168.861 29ZM168.706 24.712H174.544V26.5124H168.706V24.712ZM178.158 32.0682V20.8182H180.396V22.1925H180.497C180.596 21.9723 180.74 21.7486 180.928 21.5213C181.12 21.2905 181.369 21.0987 181.674 20.946C181.983 20.7898 182.367 20.7116 182.825 20.7116C183.421 20.7116 183.972 20.8679 184.476 21.1804C184.98 21.4893 185.383 21.9563 185.685 22.5813C185.987 23.2028 186.138 23.9822 186.138 24.9197C186.138 25.8324 185.991 26.603 185.696 27.2315C185.405 27.8565 185.007 28.3306 184.503 28.6538C184.002 28.9734 183.441 29.1332 182.819 29.1332C182.379 29.1332 182.004 29.0604 181.695 28.9148C181.39 28.7692 181.14 28.5863 180.944 28.3661C180.749 28.1424 180.6 27.9169 180.497 27.6896H180.428V32.0682H178.158ZM180.38 24.9091C180.38 25.3956 180.447 25.82 180.582 26.1822C180.717 26.5444 180.912 26.8267 181.168 27.0291C181.424 27.228 181.734 27.3274 182.1 27.3274C182.47 27.3274 182.782 27.2262 183.038 27.0238C183.293 26.8178 183.487 26.5337 183.618 26.1715C183.753 25.8058 183.821 25.3849 183.821 24.9091C183.821 24.4368 183.755 24.0213 183.624 23.6626C183.492 23.304 183.299 23.0234 183.043 22.821C182.787 22.6186 182.473 22.5174 182.1 22.5174C181.731 22.5174 181.418 22.6151 181.163 22.8104C180.911 23.0057 180.717 23.2827 180.582 23.6413C180.447 24 180.38 24.4226 180.38 24.9091ZM187.651 32.0682V20.8182H189.888V22.1925H189.989C190.089 21.9723 190.232 21.7486 190.421 21.5213C190.612 21.2905 190.861 21.0987 191.166 20.946C191.475 20.7898 191.859 20.7116 192.317 20.7116C192.913 20.7116 193.464 20.8679 193.968 21.1804C194.472 21.4893 194.875 21.9563 195.177 22.5813C195.479 23.2028 195.63 23.9822 195.63 24.9197C195.63 25.8324 195.483 26.603 195.188 27.2315C194.897 27.8565 194.499 28.3306 193.995 28.6538C193.494 28.9734 192.933 29.1332 192.312 29.1332C191.871 29.1332 191.497 29.0604 191.188 28.9148C190.882 28.7692 190.632 28.5863 190.437 28.3661C190.241 28.1424 190.092 27.9169 189.989 27.6896H189.92V32.0682H187.651ZM189.872 24.9091C189.872 25.3956 189.939 25.82 190.074 26.1822C190.209 26.5444 190.405 26.8267 190.66 27.0291C190.916 27.228 191.227 27.3274 191.592 27.3274C191.962 27.3274 192.274 27.2262 192.53 27.0238C192.786 26.8178 192.979 26.5337 193.111 26.1715C193.245 25.8058 193.313 25.3849 193.313 24.9091C193.313 24.4368 193.247 24.0213 193.116 23.6626C192.984 23.304 192.791 23.0234 192.535 22.821C192.28 22.6186 191.965 22.5174 191.592 22.5174C191.223 22.5174 190.911 22.6151 190.655 22.8104C190.403 23.0057 190.209 23.2827 190.074 23.6413C189.939 24 189.872 24.4226 189.872 24.9091Z" fill="white"/>
</g>
<defs>
<clipPath id="clip0_477_10121">
<rect width="207" height="48" fill="white"/>
</clipPath>
</defs>
</svg>

