<svg width="1023" height="1000" viewBox="0 0 1023 1000" fill="none" xmlns="http://www.w3.org/2000/svg">
<rect x="11" width="1000" height="1000" fill="white"/>
<path d="M307.333 433.333C390.915 464.092 442.58 437.171 573.014 426.281C631.239 421.419 693.152 422.353 752.36 446.598C762.928 450.925 773.874 456.045 785.677 462.257L712.759 454.285C550.715 416.845 427.447 499.753 307.333 433.333Z" fill="#7284FF"/>
<path d="M573.189 414.88L544.573 422.261C444.92 370.584 320.015 368.739 193.673 422.261C231.738 434.051 250.64 445.528 266.976 462.257L232.395 458.509C164.342 413.177 28.7539 428.484 43.7625 567.886C39.5171 528.473 39.4535 494.492 46.3273 465.017C47.5337 459.843 48.9622 454.589 47.7337 448.946C46.1707 441.765 42.1734 434.576 38.6036 422.261V422.261C44.6923 426.994 52.0026 429.635 59.0206 429.635H62.405C69.1617 429.635 75.7309 428.467 81.6503 426.295C318.531 339.361 433.646 345.624 573.189 414.88Z" fill="#7284FF"/>
<path d="M53.9562 592.175L76.1614 487.708H99.0473L76.8422 592.175H53.9562ZM94.2629 592.175L116.468 487.708H143.931L161.701 550.537L205.876 487.708H233.186L210.981 592.175H188.095L202.275 525.465L164.961 577.55H146.653L131.328 525.465L117.149 592.175H94.2629ZM228.438 592.175L250.643 487.708H292.143C300.89 487.708 307.805 489.151 312.888 492.036C318.072 494.921 321.549 498.901 323.319 503.975C325.11 508.95 325.339 514.571 324.006 520.839C322.759 526.709 320.233 532.131 316.429 537.106C312.626 542.081 307.548 546.11 301.196 549.194C294.845 552.279 287.143 553.821 278.09 553.821H259.476L251.323 592.175H228.438ZM263.283 535.912H280.371C286.372 535.912 290.98 534.569 294.196 531.883C297.534 529.097 299.69 525.416 300.663 520.839C301.657 516.163 301.055 512.531 298.859 509.944C296.785 507.258 292.748 505.915 286.747 505.915H269.659L263.283 535.912ZM369.953 593.966C359.477 593.966 350.758 591.678 343.797 587.101C336.836 582.524 331.923 576.206 329.059 568.148C326.318 559.989 326.078 550.587 328.341 539.941C330.604 529.296 334.83 519.943 341.018 511.885C347.329 503.726 354.938 497.359 363.845 492.782C372.751 488.205 382.443 485.917 392.92 485.917C403.396 485.917 412.166 488.205 419.229 492.782C426.291 497.359 431.143 503.726 433.782 511.885C436.545 519.943 436.795 529.296 434.532 539.941C432.269 550.587 428.033 559.989 421.823 568.148C415.737 576.206 408.189 582.524 399.181 587.101C390.172 591.678 380.43 593.966 369.953 593.966ZM374.236 573.819C380.44 573.819 386.026 572.426 390.991 569.64C396.059 566.854 400.342 562.974 403.841 557.999C407.36 552.925 409.86 546.906 411.341 539.941C412.821 532.977 412.869 527.007 411.486 522.033C410.123 516.959 407.489 513.078 403.585 510.392C399.803 507.606 394.81 506.213 388.606 506.213C382.604 506.213 377.07 507.606 372.002 510.392C366.956 513.078 362.673 516.959 359.153 522.033C355.655 527.007 353.165 532.977 351.685 539.941C350.204 546.906 350.146 552.925 351.508 557.999C352.892 562.974 355.526 566.854 359.409 569.64C363.292 572.426 368.234 573.819 374.236 573.819ZM437.486 592.175L459.691 487.708H501.191C509.837 487.708 516.691 489.2 521.752 492.185C526.937 495.07 530.384 498.951 532.094 503.826C533.906 508.701 534.177 514.123 532.908 520.093C531.724 525.664 529.241 530.888 525.458 535.763C521.777 540.638 516.772 544.568 510.441 547.553C504.111 550.537 496.419 552.03 487.367 552.03H468.905L460.372 592.175H437.486ZM492.565 592.175L480.759 546.508H505.323L518.502 592.175H492.565ZM472.331 535.912H489.572C495.268 535.912 499.724 534.569 502.939 531.883C506.257 529.196 508.402 525.565 509.375 520.988C510.326 516.511 509.704 512.979 507.507 510.392C505.434 507.706 501.549 506.363 495.853 506.363H478.612L472.331 535.912ZM556.893 592.175L575.26 505.766H544.288L548.126 487.708H632.957L629.119 505.766H598.146L579.779 592.175H556.893ZM668.477 593.966C658.001 593.966 649.282 591.678 642.321 587.101C635.36 582.524 630.447 576.206 627.583 568.148C624.842 559.989 624.603 550.587 626.865 539.941C629.128 529.296 633.354 519.943 639.542 511.885C645.854 503.726 653.462 497.359 662.369 492.782C671.276 488.205 680.967 485.917 691.444 485.917C701.921 485.917 710.69 488.205 717.753 492.782C724.816 497.359 729.667 503.726 732.307 511.885C735.069 519.943 735.319 529.296 733.056 539.941C730.793 550.587 726.557 559.989 720.347 568.148C714.261 576.206 706.713 582.524 697.705 587.101C688.697 591.678 678.954 593.966 668.477 593.966ZM672.76 573.819C678.965 573.819 684.55 572.426 689.516 569.64C694.583 566.854 698.866 562.974 702.365 557.999C705.885 552.925 708.385 546.906 709.865 539.941C711.345 532.977 711.394 527.007 710.01 522.033C708.647 516.959 706.014 513.078 702.109 510.392C698.328 507.606 693.334 506.213 687.13 506.213C681.129 506.213 675.594 507.606 670.527 510.392C665.48 513.078 661.197 516.959 657.677 522.033C654.179 527.007 651.689 532.977 650.209 539.941C648.729 546.906 648.67 552.925 650.032 557.999C651.416 562.974 654.05 566.854 657.933 569.64C661.816 572.426 666.759 573.819 672.76 573.819ZM752.454 592.175L747.043 487.708H771.455L771.82 567.103L809.445 487.708H834.773L837.915 566.954L872.153 487.708H896.87L846.133 592.175H818.67L815.111 519.197L779.917 592.175H752.454ZM930.122 593.966C919.645 593.966 910.926 591.678 903.966 587.101C897.005 582.524 892.092 576.206 889.228 568.148C886.486 559.989 886.247 550.587 888.51 539.941C890.773 529.296 894.998 519.943 901.187 511.885C907.498 503.726 915.107 497.359 924.014 492.782C932.92 488.205 942.612 485.917 953.088 485.917C963.565 485.917 972.335 488.205 979.398 492.782C986.46 497.359 991.311 503.726 993.951 511.885C996.714 519.943 996.963 529.296 994.701 539.941C992.438 550.587 988.202 559.989 981.992 568.148C975.905 576.206 968.358 582.524 959.349 587.101C950.341 591.678 940.599 593.966 930.122 593.966ZM934.404 573.819C940.609 573.819 946.194 572.426 951.16 569.64C956.228 566.854 960.511 562.974 964.009 557.999C967.529 552.925 970.029 546.906 971.51 539.941C972.99 532.977 973.038 527.007 971.654 522.033C970.292 516.959 967.658 513.078 963.754 510.392C959.972 507.606 954.979 506.213 948.774 506.213C942.773 506.213 937.239 507.606 932.171 510.392C927.125 513.078 922.842 516.959 919.322 522.033C915.823 527.007 913.334 532.977 911.854 539.941C910.373 546.906 910.314 552.925 911.677 557.999C913.061 562.974 915.694 566.854 919.578 569.64C923.461 572.426 928.403 573.819 934.404 573.819Z" fill="black"/>
</svg>
